<svg xmlns="http://www.w3.org/2000/svg" width="97" height="60" viewBox="0 0 97 60">
    <g fill="none" fill-rule="evenodd">
        <g fill="#171717">
            <g>
                <g>
                    <path d="M77.848 22.72c-.4-.11-2.551-1.553-.133-8.164s5.435-6.145 5.435-6.145 3.2-.247.244 7.809c-2.906 7.476-5.147 6.61-5.546 6.5zM38.093 35.112c-.4-.111-2.551-1.553-.133-8.164s5.435-6.145 5.435-6.145 3.2-.248.244 7.809c-2.906 7.476-5.147 6.61-5.546 6.5zM96.71 11.773c-.046-.122-.215-.118-.255.006-.615 1.893-3.56 10.383-6.528 9.207C86.865 19.773 92.635 3.162 93.61.423c.069-.194-.067-.4-.267-.404-.962-.026-3.421.08-4.965 1.679-1.03 1.067-1.757 2.597-2.409 4.732-1.11-3.373-3.745-3.373-3.745-3.373s-6.506-.436-11.298 9.902c-1.874 4.042-2.438 7.467-2.258 10.206l-1.958 3.077c-.782-1.508-3.335-6.832-2.794-11.126.892-7.09 5.03-9.983 6.347-10.734.153-.087.124-.316-.046-.362-1.188-.316-4.65-.729-9.437 3.11-4.88 3.914-6.926 9.74-4.796 17.113-1.298 3.935-3.652 9.817-5.9 8.93-3.063-1.21 2.794-17.59 3.77-20.323.07-.193-.066-.398-.267-.403-.962-.026-3.42.08-4.964 1.674-1.03 1.063-1.755 2.585-2.406 4.709-1.11-3.381-3.748-3.381-3.748-3.381s-6.506-.437-11.298 9.901c-2.794 6.028-2.676 10.682-1.521 13.736-5.6 10.545-11.54 10.976-13.775 10.709-2.241-.268-7.303-2.992-5.827-11.887 1.722-10.383 9.09-22.086 14.149-20.46 4.618 1.775-4.038 13.607-5.373 15.386-.062.081.01.194.11.175 4.3-.812 7.295-4.728 8.816-6.85 1.56-2.18 8.456-15.24-.849-17.713C16.643 5.926 7.887 17.31 4.955 23.174c-4.387 8.768-10.072 29.08 3.87 33.659 12.733 4.182 21.05-12.22 22.39-15.08.59.664 1.223 1.116 1.82 1.345 2.372.913 7.388.262 10.846-8.077.425 2.284 1.568 3.885 3.84 4.193 3.984.539 7.586-6.253 9.484-11.603.26.597.544 1.203.854 1.817 0 0 4.496 7.459 3.786 11.54-.71 4.083-3.567 5.28-5.658 4.503-1.977-.733-2.296-3.731-.678-5.956.083-.115-.034-.269-.166-.216-1.36.542-5.232 2.57-5.475 8.15-.313 7.185 6.799 9.146 12.053 7.501 4.802-1.503 9.65-6.645 9.061-15.512 4.923 2.362 12.013 1.907 14.794-1.154 3.34-3.678 1.261-7.148.54-8.131-.106-.144-.32-.149-.432-.01-4.94 6.081-11.293 6.445-15.377 5.857-.617-2.898-1.775-5.671-2.606-7.432l1.378-2.223c.81 2.389 2.245 3.875 3.51 4.362 2.373.912 7.384.262 10.843-8.067.421 2.303 1.565 3.919 3.844 4.228 2.713.368 5.23-2.191 6.99-5.551 2.697-5.151 2.244-9.544 2.244-9.544z" transform="translate(-80 -70) translate(80 65) translate(0 5)"/>
                    <path d="M47.572 46.466c-5.551-4.293-16.758.026-18.491 5.447-1.513 4.733 1.819 7.026 2.884 7.622.155.087.351.002.396-.17 2.722-10.48 12.436-12.146 15.07-12.407.247-.024.338-.34.14-.492" transform="translate(-80 -70) translate(80 65) translate(0 5)"/>
                </g>
            </g>
        </g>
    </g>
</svg>
